<?xml version="1.0" encoding="UTF-8" standalone="no"?>
<svg
   xmlns:dc="http://purl.org/dc/elements/1.1/"
   xmlns:cc="http://creativecommons.org/ns#"
   xmlns:rdf="http://www.w3.org/1999/02/22-rdf-syntax-ns#"
   xmlns:svg="http://www.w3.org/2000/svg"
   xmlns="http://www.w3.org/2000/svg"
   xmlns:sodipodi="http://sodipodi.sourceforge.net/DTD/sodipodi-0.dtd"
   xmlns:inkscape="http://www.inkscape.org/namespaces/inkscape"
   version="1.1"
   id="svg3812"
   sodipodi:docname="logo.svg"
   inkscape:version="0.92.2 (5c3e80d, 2017-08-06)">
  <metadata
     id="metadata3816">
    <rdf:RDF>
      <cc:Work
         rdf:about="">
        <dc:format>image/svg+xml</dc:format>
        <dc:type
           rdf:resource="http://purl.org/dc/dcmitype/StillImage" />
        <dc:title></dc:title>
      </cc:Work>
    </rdf:RDF>
  </metadata>
  <sodipodi:namedview
     pagecolor="#ffffff"
     bordercolor="#666666"
     borderopacity="1"
     objecttolerance="10"
     gridtolerance="10"
     guidetolerance="10"
     inkscape:pageopacity="0"
     inkscape:pageshadow="2"
     inkscape:window-width="2560"
     inkscape:window-height="1377"
     id="namedview3814"
     showgrid="false"
     inkscape:zoom="4.72"
     inkscape:cx="45.491507"
     inkscape:cy="82.801585"
     inkscape:window-x="-8"
     inkscape:window-y="-8"
     inkscape:window-maximized="1"
     inkscape:current-layer="svg3812" />
  <defs
     id="defs3806" />
  <g
     id="g3810"
     style="fill:#c0d3c0"
     transform="translate(29.872881,46.504237)">
   <path
       d="m -23.45,4.9 q 3.75,-8 9.4,-12.4 2.15,-1.8 3.8,-2.7 1.75,-1 1.4,-3 L -9,-15 q 0,-3.7 2.65,-6.35 Q -3.75,-24 0,-24 3.7,-24 6.35,-21.35 9,-18.7 9,-15 l -0.2,1.8 q -0.3,2 1.45,3 1.6,0.9 3.8,2.7 5.7,4.4 9.4,12.4 l 0.5,1.85 0.05,0.65 -0.25,1.45 -0.05,0.2 -0.95,1.4 q -1.3,1.25 -3.05,1.25 -1.75,0 -3.05,-1.25 L 16.2,9.9 13.55,5.7 13.45,5.6 13.3,5.45 q -0.35,-0.4 -0.9,-0.4 -0.55,0 -0.95,0.4 Q 11.1,5.8 11.1,6.35 V 6.4 q 0,1.2 2,5.9 2,4.65 2.75,7.45 v 0.2 L 16,20.8 q -0.05,1.3 -0.8,2.05 l -1.45,1 L 12.7,24 H 11.6 5.45 5.35 q -1,0 -1.75,-0.5 L 3.05,23.05 2.55,22.45 2.2,21.5 2.05,20.9 1,14.95 V 14.9 L 0.7,14.35 q -0.3,-0.3 -0.7,-0.3 -0.45,0 -0.75,0.3 L -1,14.9 v 0.05 l -1.05,5.95 -0.15,0.6 -0.4,0.95 -0.45,0.6 -0.55,0.45 Q -4.4,24 -5.35,24 h -0.1 -6.15 -1.15 l -1.05,-0.15 -1.4,-1 Q -15.95,22.1 -16,20.8 l 0.1,-0.85 0.05,-0.2 q 0.7,-2.8 2.75,-7.45 1.95,-4.7 1.95,-5.9 V 6.35 q 0,-0.55 -0.3,-0.9 -0.45,-0.4 -0.95,-0.4 -0.55,0 -0.9,0.4 l -0.15,0.15 -0.1,0.1 -2.7,4.2 -0.45,0.55 q -1.25,1.25 -3,1.25 -1.8,0 -3.05,-1.25 l -1,-1.4 V 8.85 L -24,7.4 V 6.75 l 0.55,-1.85"
       id="path3808"
       style="fill:#c0d3c0;stroke:#c0d3c1;stroke-width:2"
       inkscape:connector-curvature="0" />
  </g>
  <path
     d="m 64.409005,41.883898 c -0.23333,0.2 -0.51667,0.3 -0.85,0.3 h -6.35 l -0.6,-0.2 -0.45,-0.45 -0.1,-0.75 c 0.26667,-3.06667 1.35,-5.45 3.25,-7.15 1.86667,-1.73333 4.21667,-2.6 7.05,-2.6 2.83333,0 5.15,0.76667 6.95,2.3 1.83333,1.63333 2.75,3.86667 2.75,6.7 0,1.36667 -0.18333,2.36667 -0.55,3 l -0.55,1.05 h 0.05 l -0.9,1.35 -0.05,0.05 -0.8,0.9 v 0.05 l -1.85,1.8 -0.75,0.85 h -0.3 v 0.05 h 0.3 l -0.2,0.25 -0.1,0.85 v 0.6 0.1 l -0.35,0.8 -0.9,0.3 h -6.1 l -0.85,-0.3 c -0.23333,-0.23333 -0.36667,-0.5 -0.4,-0.8 v -2.8 h 0.15 c 0.0667,-0.6 0.2,-1.08333 0.4,-1.45 0.3,-0.63333 0.96667,-1.5 2,-2.6 l 2.7,-2.7 0.25,-1.1 -0.35,-1.1 c -0.16667,-0.23333 -0.4,-0.33333 -0.7,-0.3 -0.3,0 -0.56667,0.13333 -0.8,0.4 v -0.05 c -0.3,0.46667 -0.48333,1.08333 -0.55,1.85 l -0.45,0.8 m 2.05,12.15 c 1.26667,0 2.35,0.41667 3.25,1.25 0.9,0.86667 1.35,1.93333 1.35,3.2 0,1.26667 -0.45,2.35 -1.35,3.25 -0.9,0.86667 -1.98333,1.3 -3.25,1.3 -1.2,0 -2.23333,-0.43333 -3.1,-1.3 -0.86667,-0.86667 -1.3,-1.95 -1.3,-3.25 0,-1.26667 0.43333,-2.33333 1.3,-3.2 0.86667,-0.83333 1.9,-1.25 3.1,-1.25"
     id="path3725"
     inkscape:connector-curvature="0"
     style="fill:#c0d3c0;stroke:#c0d3c1;stroke-width:2"
     sodipodi:nodetypes="cscccccscscccccccccccccccccccccccccccccccccccscssscc" />
  <path
     d="m 89.951165,33.110668 c 0.4,0.4 0.6,0.86667 0.6,1.4 v 15 c 0,0.56667 -0.2,1.05 -0.6,1.45 -0.4,0.36667 -0.86667,0.55 -1.4,0.55 h -4 c -0.56667,0 -1.05,-0.18333 -1.45,-0.55 -0.36667,-0.4 -0.55,-0.88333 -0.55,-1.45 v -14.95 c 0,-0.56667 0.18333,-1.05 0.55,-1.45 0.4,-0.4 0.88333,-0.6 1.45,-0.6 h 4 c 0.53333,0 1,0.2 1.4,0.6 m -7.4,25.4 c 0,-1.1 0.38333,-2.03333 1.15,-2.8 0.8,-0.8 1.75,-1.2 2.85,-1.2 1.13333,0 2.08333,0.4 2.85,1.2 h -0.05 c 0.8,0.8 1.2,1.73333 1.2,2.8 0,1.13333 -0.4,2.1 -1.2,2.9 v -0.05 c -0.76667,0.76667 -1.7,1.15 -2.8,1.15 -1.13333,0 -2.08333,-0.38333 -2.85,-1.15 -0.76667,-0.8 -1.15,-1.75 -1.15,-2.85"
     id="path3725-3"
     inkscape:connector-curvature="0"
     style="fill:#c0d3c0;stroke:#c0d3c1;stroke-width:2"
     sodipodi:nodetypes="csscsscsscssccssccsccscc" />
</svg>
